<?xml version="1.0" standalone="no"?>
<!DOCTYPE svg PUBLIC "-//W3C//DTD SVG 20010904//EN"
 "http://www.w3.org/TR/2001/REC-SVG-20010904/DTD/svg10.dtd">
<svg version="1.0" xmlns="http://www.w3.org/2000/svg"
 width="260.000000pt" height="260.000000pt" viewBox="0 0 260.000000 260.000000"
 preserveAspectRatio="xMidYMid meet">
<metadata>
Created by potrace 1.11, written by Peter Selinger 2001-2013
</metadata>
<g transform="translate(0.000000,260.000000) scale(0.100000,-0.100000)"
fill="#000000" stroke="none">
<path d="M1233 2538 c-36 -18 -44 -55 -45 -225 0 -168 5 -194 46 -223 36 -26
108 -3 126 39 6 16 11 93 12 189 0 153 -1 165 -22 195 -18 27 -30 34 -59 35
-20 0 -46 -4 -58 -10z"/>
<path d="M693 2390 c-57 -23 -69 -93 -28 -165 16 -27 37 -65 47 -83 10 -18 26
-44 34 -58 9 -13 13 -24 10 -24 -7 0 -3 -6 41 -58 63 -75 179 -18 156 77 -7
31 -149 285 -166 299 -19 15 -70 22 -94 12z"/>
<path d="M1793 2387 c-25 -14 -50 -46 -82 -107 -13 -25 -31 -51 -39 -57 -9 -7
-13 -13 -9 -13 4 0 -9 -30 -28 -67 -40 -77 -41 -83 -19 -129 27 -56 103 -65
146 -18 19 22 77 121 85 147 3 9 10 17 15 17 5 0 6 5 3 10 -3 6 -2 10 3 10 6
0 13 11 16 24 3 14 12 31 20 39 16 15 19 28 17 69 -2 58 -78 102 -128 75z"/>
<path d="M1207 1978 c-263 -31 -480 -222 -548 -484 -12 -48 -20 -113 -20 -164
-2 -293 174 -546 440 -635 73 -24 112 -30 206 -29 117 0 181 15 276 65 24 13
47 23 50 24 4 0 21 11 39 25 18 14 38 24 44 22 6 -2 8 0 4 4 -4 4 10 23 30 43
97 92 167 235 189 381 15 99 -8 269 -47 354 -11 26 -18 52 -14 58 4 6 3 8 -3
5 -5 -3 -20 13 -33 36 -13 23 -51 69 -84 103 -99 99 -185 148 -311 177 -93 21
-137 24 -218 15z m156 -194 c102 -9 253 -117 313 -224 64 -113 78 -264 35
-393 -25 -74 -105 -192 -123 -181 -6 4 -8 3 -4 -4 12 -19 -134 -108 -160 -98
-8 3 -13 2 -10 -3 8 -13 -38 -23 -116 -27 -195 -8 -378 116 -448 304 -27 70
-34 207 -14 281 15 60 72 171 91 178 7 3 11 8 10 12 -2 3 4 14 15 24 10 9 18
14 18 11 0 -4 9 5 20 19 35 44 157 98 241 106 41 4 77 5 82 3 4 -2 26 -5 50
-8z"/>
<path d="M280 1974 c-22 -6 -42 -43 -45 -82 -2 -26 5 -43 27 -68 17 -19 34
-34 39 -34 9 0 161 -90 169 -100 3 -4 27 -15 53 -25 38 -14 53 -16 72 -7 36
17 64 67 58 105 -7 45 -29 62 -254 191 -42 24 -80 30 -119 20z"/>
<path d="M2160 1954 c-124 -67 -231 -140 -243 -166 -21 -44 -10 -90 28 -117
45 -31 67 -25 199 54 59 36 110 65 114 65 17 0 62 53 63 73 4 53 -2 73 -26 95
-34 29 -78 28 -135 -4z"/>
<path d="M145 1410 c-71 -28 -78 -128 -13 -169 22 -14 310 -18 350 -5 62 19
80 105 32 154 -24 24 -28 25 -187 27 -89 1 -171 -2 -182 -7z"/>
<path d="M2084 1413 c-12 -2 -31 -14 -42 -26 -55 -59 -14 -156 66 -157 274 -4
300 -2 331 21 45 33 46 99 1 141 -28 26 -29 26 -182 25 -84 0 -163 -2 -174 -4z"/>
<path d="M508 977 c-16 -6 -28 -14 -28 -19 0 -4 -5 -8 -10 -8 -6 0 -39 -18
-74 -40 -35 -22 -67 -40 -72 -40 -5 0 -26 -15 -47 -33 -43 -37 -54 -85 -29
-129 17 -29 59 -49 92 -43 42 8 276 149 295 178 21 33 24 68 9 99 -24 47 -74
60 -136 35z"/>
<path d="M1934 963 c-34 -32 -39 -74 -12 -115 16 -24 232 -160 289 -182 33
-12 82 6 97 37 17 33 34 83 26 74 -4 -4 -13 6 -20 22 -9 21 -43 47 -131 98
-65 39 -128 76 -140 82 -37 19 -77 13 -109 -16z"/>
<path d="M845 676 c-36 -10 -45 -21 -92 -101 -105 -180 -117 -206 -109 -255 5
-36 12 -48 33 -57 55 -26 113 -9 138 41 25 49 51 95 65 111 7 8 10 15 7 15 -3
0 10 25 28 56 56 92 55 141 -2 181 -24 18 -33 19 -68 9z"/>
<path d="M1637 658 c-48 -46 -45 -79 18 -188 17 -30 51 -89 74 -131 47 -84 82
-106 131 -85 28 12 59 43 61 60 1 6 2 18 3 26 3 30 -143 294 -178 322 -30 25
-80 23 -109 -4z"/>
<path d="M1254 563 c-12 -2 -31 -14 -43 -27 -20 -21 -21 -33 -22 -199 0 -147
3 -180 16 -201 26 -39 71 -50 118 -28 48 23 50 36 47 344 0 45 -5 62 -22 81
-24 26 -58 37 -94 30z"/>
</g>
</svg>
